<svg xmlns="http://www.w3.org/2000/svg" width="430" height="430" style="width:100%;height:100%;transform:translate3d(0,0,0);content-visibility:visible" viewBox="0 0 430 430"><defs><clipPath id="a"><path d="M0 0h430v430H0z"/></clipPath><clipPath id="b"><path d="M0 0h430v430H0z"/></clipPath></defs><g clip-path="url(#a)"><g clip-path="url(#b)" style="display:block"><g fill="none" stroke-linecap="round" stroke-linejoin="round" stroke-width="12" style="display:block"><path stroke="#08A88A" d="m140.399 219.967-58.498-39.269m245.13 23.113 40.167-12.494m12.11 75.762H28.192" class="secondary"/><path stroke="#121331" d="m219.16 171.776-.007-44.833m182.655 107.651-51.601 74.49H67.569c-21.747 0-39.377-17.63-39.377-39.377v-35.123h98.564a13.39 13.39 0 0 0 13.289-11.748l2.352-19.025h184.634l2.352 19.034a13.392 13.392 0 0 0 13.29 11.749h59.135zm-127.49-30.784v-32.039h-95.917m-35.862 32.04 7.329-73.198h24.409l7.329 73.198m-60.397 30.773h231.408" class="primary"/><path stroke="#08A88A" d="m219.159 96.916-.013 30.05" class="secondary"/></g><g opacity="0" style="display:block"><path fill="none" stroke="#121331" stroke-linecap="round" stroke-linejoin="round" stroke-width="12" d="m389.5 184.25 82-26.75" class="primary" opacity="1"/></g><path fill="none" stroke="#08A88A" stroke-linecap="round" stroke-linejoin="round" stroke-width="15.4" d="m-36.358-20.015 19.249.018c10.129.009 21.677.018 27.751.018 11.947 0 25.716-.036 25.716-.036v40.03s-13.102.036-24.716.036c-6.519 0-19.103-.01-29.751-.019l-18.249-.017" class="secondary" style="display:block" transform="translate(247.358 111.9) scale(.75246)"/></g></g></svg>